<svg xmlns="http://www.w3.org/2000/svg" xmlns:xlink="http://www.w3.org/1999/xlink" width="139" zoomAndPan="magnify" viewBox="0 0 104.25 39.749999" height="53" preserveAspectRatio="xMidYMid meet" version="1.0"><defs><g/><clipPath id="066ca076c4"><path d="M 0 0.0195312 L 103.503906 0.0195312 L 103.503906 39.484375 L 0 39.484375 Z M 0 0.0195312 " clip-rule="nonzero"/></clipPath></defs><g clip-path="url(#066ca076c4)"><path fill="#ffffff" d="M 0 0.0195312 L 103.503906 0.0195312 L 103.503906 39.484375 L 0 39.484375 Z M 0 0.0195312 " fill-opacity="1" fill-rule="nonzero"/></g><g fill="#000000" fill-opacity="1"><g transform="translate(12.49214, 25.19408)"><g><path d="M 16.578125 7.296875 L 16.578125 5.703125 L 7.984375 5.703125 L 7.984375 4.703125 C 7.984375 4.472656 7.9375 4.304688 7.84375 4.203125 C 7.800781 4.128906 7.75 4.070312 7.6875 4.03125 C 7.632812 4 7.570312 3.972656 7.5 3.953125 L 7.5 2.96875 L 7.671875 2.96875 C 9.148438 2.96875 10.363281 2.691406 11.3125 2.140625 C 12.226562 1.566406 12.9375 0.832031 13.4375 -0.0625 C 13.6875 -0.507812 13.890625 -0.988281 14.046875 -1.5 C 14.203125 -2.019531 14.328125 -2.566406 14.421875 -3.140625 C 14.492188 -3.710938 14.550781 -4.289062 14.59375 -4.875 C 14.632812 -5.457031 14.65625 -6.039062 14.65625 -6.625 C 14.65625 -7.21875 14.632812 -7.804688 14.59375 -8.390625 C 14.550781 -8.972656 14.492188 -9.550781 14.421875 -10.125 C 14.328125 -10.6875 14.203125 -11.21875 14.046875 -11.71875 C 13.890625 -12.226562 13.6875 -12.710938 13.4375 -13.171875 C 12.9375 -14.054688 12.226562 -14.785156 11.3125 -15.359375 C 10.363281 -15.910156 9.148438 -16.1875 7.671875 -16.1875 L 7.5 -16.1875 L 7.5 -17.171875 C 7.570312 -17.203125 7.632812 -17.234375 7.6875 -17.265625 C 7.75 -17.304688 7.800781 -17.359375 7.84375 -17.421875 C 7.9375 -17.535156 7.984375 -17.707031 7.984375 -17.9375 L 7.984375 -19.171875 L 16.578125 -19.171875 L 16.578125 -20.765625 L -0.546875 -20.765625 L -0.546875 -19.171875 L 6.453125 -19.171875 L 6.453125 -17.9375 C 6.453125 -17.519531 6.609375 -17.265625 6.921875 -17.171875 L 6.921875 -16.1875 L 3.3125 -16.1875 C 2.769531 -16.1875 2.375 -16.078125 2.125 -15.859375 C 1.875 -15.648438 1.75 -15.25 1.75 -14.65625 L 1.75 1.4375 C 1.75 2.03125 1.875 2.425781 2.125 2.625 C 2.375 2.851562 2.769531 2.96875 3.3125 2.96875 L 6.921875 2.96875 L 6.921875 3.953125 C 6.609375 4.046875 6.453125 4.296875 6.453125 4.703125 L 6.453125 5.703125 L -0.546875 5.703125 L -0.546875 7.296875 Z M 7.828125 1.1875 L 4.515625 1.1875 C 4.210938 1.1875 4.019531 1.125 3.9375 1 C 3.832031 0.875 3.78125 0.664062 3.78125 0.375 L 3.78125 -13.59375 C 3.78125 -13.894531 3.832031 -14.101562 3.9375 -14.21875 C 4.019531 -14.351562 4.210938 -14.421875 4.515625 -14.421875 L 7.609375 -14.421875 C 8.085938 -14.421875 8.53125 -14.367188 8.9375 -14.265625 C 9.34375 -14.171875 9.707031 -14.035156 10.03125 -13.859375 C 10.65625 -13.492188 11.164062 -12.972656 11.5625 -12.296875 C 11.738281 -11.941406 11.890625 -11.554688 12.015625 -11.140625 C 12.148438 -10.734375 12.257812 -10.289062 12.34375 -9.8125 C 12.414062 -9.332031 12.46875 -8.828125 12.5 -8.296875 C 12.539062 -7.765625 12.5625 -7.207031 12.5625 -6.625 C 12.5625 -5.445312 12.492188 -4.378906 12.359375 -3.421875 C 12.285156 -2.941406 12.1875 -2.492188 12.0625 -2.078125 C 11.9375 -1.660156 11.785156 -1.285156 11.609375 -0.953125 C 11.429688 -0.597656 11.21875 -0.289062 10.96875 -0.03125 C 10.726562 0.226562 10.460938 0.453125 10.171875 0.640625 C 9.523438 1.003906 8.742188 1.1875 7.828125 1.1875 Z M 7.828125 1.1875 "/></g></g></g><g fill="#000000" fill-opacity="1"><g transform="translate(28.406512, 25.19408)"><g><path d="M 17.421875 -19.171875 L 17.421875 -20.765625 L -0.546875 -20.765625 L -0.546875 -19.171875 L 7.84375 -19.171875 L 7.84375 -17.9375 C 7.84375 -17.519531 8 -17.265625 8.3125 -17.171875 L 8.3125 -16.40625 C 7.394531 -16.40625 6.539062 -16.296875 5.75 -16.078125 C 4.9375 -15.847656 4.242188 -15.5 3.671875 -15.03125 C 3.078125 -14.5625 2.613281 -13.9375 2.28125 -13.15625 C 1.925781 -12.363281 1.75 -11.410156 1.75 -10.296875 L 1.75 -2.921875 C 1.75 -1.785156 1.925781 -0.84375 2.28125 -0.09375 C 2.613281 0.6875 3.078125 1.320312 3.671875 1.8125 C 4.242188 2.28125 4.9375 2.628906 5.75 2.859375 C 6.539062 3.078125 7.394531 3.1875 8.3125 3.1875 L 8.3125 3.953125 C 8 4.046875 7.84375 4.296875 7.84375 4.703125 L 7.84375 5.703125 L -0.546875 5.703125 L -0.546875 7.296875 L 17.421875 7.296875 L 17.421875 5.703125 L 9.375 5.703125 L 9.375 4.703125 C 9.375 4.472656 9.328125 4.304688 9.234375 4.203125 C 9.191406 4.128906 9.140625 4.070312 9.078125 4.03125 C 9.023438 4 8.960938 3.972656 8.890625 3.953125 L 8.890625 3.15625 C 9.722656 3.113281 10.519531 2.984375 11.28125 2.765625 C 12.007812 2.515625 12.65625 2.15625 13.21875 1.6875 C 13.75 1.195312 14.1875 0.566406 14.53125 -0.203125 C 14.832031 -0.953125 14.984375 -1.863281 14.984375 -2.9375 L 14.984375 -10.28125 C 14.984375 -11.351562 14.832031 -12.265625 14.53125 -13.015625 C 14.207031 -13.753906 13.769531 -14.375 13.21875 -14.875 C 12.675781 -15.351562 12.03125 -15.722656 11.28125 -15.984375 C 10.519531 -16.203125 9.722656 -16.335938 8.890625 -16.390625 L 8.890625 -17.171875 C 8.960938 -17.203125 9.023438 -17.234375 9.078125 -17.265625 C 9.140625 -17.304688 9.191406 -17.359375 9.234375 -17.421875 C 9.328125 -17.535156 9.375 -17.707031 9.375 -17.9375 L 9.375 -19.171875 Z M 3.78125 -2.921875 L 3.78125 -10.296875 C 3.78125 -11.179688 3.921875 -11.90625 4.203125 -12.46875 C 4.460938 -13.03125 4.816406 -13.472656 5.265625 -13.796875 C 5.671875 -14.085938 6.164062 -14.300781 6.75 -14.4375 C 7.007812 -14.5 7.273438 -14.539062 7.546875 -14.5625 C 7.816406 -14.59375 8.09375 -14.609375 8.375 -14.609375 C 8.644531 -14.609375 8.914062 -14.59375 9.1875 -14.5625 C 9.457031 -14.539062 9.734375 -14.5 10.015625 -14.4375 C 10.273438 -14.375 10.53125 -14.289062 10.78125 -14.1875 C 11.039062 -14.09375 11.28125 -13.960938 11.5 -13.796875 C 11.925781 -13.472656 12.28125 -13.03125 12.5625 -12.46875 C 12.820312 -11.894531 12.953125 -11.171875 12.953125 -10.296875 L 12.953125 -2.921875 C 12.953125 -2.035156 12.820312 -1.3125 12.5625 -0.75 C 12.414062 -0.46875 12.253906 -0.21875 12.078125 0 C 11.898438 0.21875 11.707031 0.410156 11.5 0.578125 C 11.28125 0.722656 11.039062 0.847656 10.78125 0.953125 C 10.53125 1.054688 10.273438 1.144531 10.015625 1.21875 C 9.734375 1.269531 9.457031 1.3125 9.1875 1.34375 C 8.914062 1.375 8.644531 1.390625 8.375 1.390625 C 8.09375 1.390625 7.816406 1.375 7.546875 1.34375 C 7.273438 1.3125 7.007812 1.269531 6.75 1.21875 C 6.164062 1.082031 5.671875 0.867188 5.265625 0.578125 C 4.804688 0.234375 4.453125 -0.207031 4.203125 -0.75 C 3.921875 -1.289062 3.78125 -2.015625 3.78125 -2.921875 Z M 3.78125 -2.921875 "/></g></g></g><g fill="#000000" fill-opacity="1"><g transform="translate(45.160812, 25.19408)"><g><path d="M 15.03125 7.296875 L 15.03125 5.703125 L 8.625 5.703125 L 8.625 4.703125 C 8.625 4.472656 8.578125 4.304688 8.484375 4.203125 C 8.441406 4.128906 8.390625 4.070312 8.328125 4.03125 C 8.273438 4 8.210938 3.972656 8.140625 3.953125 L 8.140625 2.96875 L 12.34375 2.96875 C 12.96875 2.96875 13.28125 2.671875 13.28125 2.078125 C 13.28125 1.484375 12.96875 1.1875 12.34375 1.1875 L 4.515625 1.1875 C 4.210938 1.1875 4.019531 1.125 3.9375 1 C 3.832031 0.875 3.78125 0.664062 3.78125 0.375 L 3.78125 -15.0625 C 3.78125 -15.644531 3.535156 -16.003906 3.046875 -16.140625 L 3.046875 -17.171875 C 3.117188 -17.203125 3.1875 -17.234375 3.25 -17.265625 C 3.3125 -17.304688 3.363281 -17.359375 3.40625 -17.421875 C 3.488281 -17.535156 3.53125 -17.707031 3.53125 -17.9375 L 3.53125 -19.171875 L 15.03125 -19.171875 L 15.03125 -20.765625 L -0.546875 -20.765625 L -0.546875 -19.171875 L 2.015625 -19.171875 L 2.015625 -17.9375 C 2.015625 -17.519531 2.164062 -17.265625 2.46875 -17.171875 L 2.46875 -16.140625 C 1.988281 -16.003906 1.75 -15.644531 1.75 -15.0625 L 1.75 1.4375 C 1.75 2.03125 1.875 2.425781 2.125 2.625 C 2.375 2.851562 2.769531 2.96875 3.3125 2.96875 L 7.5625 2.96875 L 7.5625 3.953125 C 7.25 4.046875 7.09375 4.296875 7.09375 4.703125 L 7.09375 5.703125 L -0.546875 5.703125 L -0.546875 7.296875 Z M 15.03125 7.296875 "/></g></g></g><g fill="#000000" fill-opacity="1"><g transform="translate(59.527953, 25.19408)"><g><path d="M 1.609375 -6.609375 C 1.609375 -5.722656 1.640625 -4.90625 1.703125 -4.15625 C 1.765625 -3.414062 1.851562 -2.742188 1.96875 -2.140625 C 2.1875 -0.898438 2.5625 0.113281 3.09375 0.90625 C 3.625 1.675781 4.332031 2.25 5.21875 2.625 C 6.082031 2.96875 7.179688 3.15625 8.515625 3.1875 L 8.515625 3.953125 C 8.203125 4.046875 8.046875 4.296875 8.046875 4.703125 L 8.046875 5.703125 L -0.546875 5.703125 L -0.546875 7.296875 L 16.90625 7.296875 L 16.90625 5.703125 L 9.578125 5.703125 L 9.578125 4.703125 C 9.578125 4.472656 9.53125 4.304688 9.4375 4.203125 C 9.394531 4.128906 9.34375 4.070312 9.28125 4.03125 C 9.226562 4 9.164062 3.972656 9.09375 3.953125 L 9.09375 3.15625 C 10.0625 3.113281 10.898438 2.9375 11.609375 2.625 C 12.273438 2.289062 12.84375 1.878906 13.3125 1.390625 C 13.53125 1.128906 13.722656 0.847656 13.890625 0.546875 C 14.066406 0.242188 14.21875 -0.0664062 14.34375 -0.390625 C 14.59375 -1.078125 14.769531 -1.78125 14.875 -2.5 C 14.925781 -2.820312 14.875 -3.101562 14.71875 -3.34375 C 14.5625 -3.539062 14.3125 -3.640625 13.96875 -3.640625 C 13.613281 -3.640625 13.363281 -3.566406 13.21875 -3.421875 C 13.0625 -3.273438 12.957031 -3.035156 12.90625 -2.703125 C 12.726562 -1.296875 12.273438 -0.269531 11.546875 0.375 C 10.742188 1.050781 9.753906 1.390625 8.578125 1.390625 C 7.710938 1.390625 6.960938 1.265625 6.328125 1.015625 C 5.691406 0.753906 5.179688 0.3125 4.796875 -0.3125 C 4.398438 -0.925781 4.113281 -1.75 3.9375 -2.78125 C 3.832031 -3.300781 3.753906 -3.878906 3.703125 -4.515625 C 3.660156 -5.148438 3.640625 -5.847656 3.640625 -6.609375 C 3.640625 -8.160156 3.726562 -9.453125 3.90625 -10.484375 C 4.082031 -11.492188 4.375 -12.3125 4.78125 -12.9375 C 5.15625 -13.539062 5.65625 -13.972656 6.28125 -14.234375 C 6.914062 -14.484375 7.664062 -14.609375 8.53125 -14.609375 C 9.632812 -14.609375 10.5625 -14.316406 11.3125 -13.734375 C 12.039062 -13.097656 12.519531 -12.195312 12.75 -11.03125 C 12.832031 -10.707031 12.9375 -10.472656 13.0625 -10.328125 C 13.195312 -10.179688 13.410156 -10.109375 13.703125 -10.109375 C 14.085938 -10.109375 14.375 -10.234375 14.5625 -10.484375 C 14.738281 -10.691406 14.789062 -11 14.71875 -11.40625 C 14.59375 -12.007812 14.414062 -12.609375 14.1875 -13.203125 C 13.925781 -13.773438 13.585938 -14.289062 13.171875 -14.75 C 12.710938 -15.207031 12.171875 -15.582031 11.546875 -15.875 C 10.867188 -16.164062 10.050781 -16.335938 9.09375 -16.390625 L 9.09375 -17.171875 C 9.164062 -17.203125 9.226562 -17.234375 9.28125 -17.265625 C 9.34375 -17.304688 9.394531 -17.359375 9.4375 -17.421875 C 9.53125 -17.535156 9.578125 -17.707031 9.578125 -17.9375 L 9.578125 -19.171875 L 16.90625 -19.171875 L 16.90625 -20.765625 L -0.546875 -20.765625 L -0.546875 -19.171875 L 8.046875 -19.171875 L 8.046875 -17.9375 C 8.046875 -17.519531 8.203125 -17.265625 8.515625 -17.171875 L 8.515625 -16.40625 C 7.210938 -16.40625 6.117188 -16.226562 5.234375 -15.875 C 4.347656 -15.507812 3.644531 -14.9375 3.125 -14.15625 C 2.570312 -13.375 2.1875 -12.351562 1.96875 -11.09375 C 1.851562 -10.476562 1.765625 -9.796875 1.703125 -9.046875 C 1.640625 -8.296875 1.609375 -7.484375 1.609375 -6.609375 Z M 1.609375 -6.609375 "/></g></g></g><g fill="#000000" fill-opacity="1"><g transform="translate(75.66336, 25.19408)"><g><path d="M 4.515625 -14.421875 L 13 -14.421875 C 13.632812 -14.421875 13.953125 -14.710938 13.953125 -15.296875 C 13.953125 -15.890625 13.632812 -16.1875 13 -16.1875 L 8.453125 -16.1875 L 8.453125 -17.171875 C 8.523438 -17.203125 8.585938 -17.234375 8.640625 -17.265625 C 8.703125 -17.304688 8.753906 -17.359375 8.796875 -17.421875 C 8.890625 -17.535156 8.9375 -17.707031 8.9375 -17.9375 L 8.9375 -19.171875 L 15.921875 -19.171875 L 15.921875 -20.765625 L -0.546875 -20.765625 L -0.546875 -19.171875 L 7.40625 -19.171875 L 7.40625 -17.9375 C 7.40625 -17.519531 7.5625 -17.265625 7.875 -17.171875 L 7.875 -16.1875 L 3.3125 -16.1875 C 2.769531 -16.1875 2.375 -16.078125 2.125 -15.859375 C 1.875 -15.648438 1.75 -15.25 1.75 -14.65625 L 1.75 1.4375 C 1.75 2.03125 1.875 2.425781 2.125 2.625 C 2.375 2.851562 2.769531 2.96875 3.3125 2.96875 L 7.875 2.96875 L 7.875 3.953125 C 7.5625 4.046875 7.40625 4.296875 7.40625 4.703125 L 7.40625 5.703125 L -0.546875 5.703125 L -0.546875 7.296875 L 15.921875 7.296875 L 15.921875 5.703125 L 8.9375 5.703125 L 8.9375 4.703125 C 8.9375 4.472656 8.890625 4.304688 8.796875 4.203125 C 8.753906 4.128906 8.703125 4.070312 8.640625 4.03125 C 8.585938 4 8.523438 3.972656 8.453125 3.953125 L 8.453125 2.96875 L 13.375 2.96875 C 14.007812 2.96875 14.328125 2.671875 14.328125 2.078125 C 14.328125 1.484375 14.007812 1.1875 13.375 1.1875 L 4.515625 1.1875 C 4.210938 1.1875 4.019531 1.125 3.9375 1 C 3.832031 0.875 3.78125 0.664062 3.78125 0.375 L 3.78125 -6.109375 L 12.640625 -6.109375 C 13.273438 -6.109375 13.59375 -6.394531 13.59375 -6.96875 C 13.59375 -7.539062 13.273438 -7.828125 12.640625 -7.828125 L 3.78125 -7.828125 L 3.78125 -13.59375 C 3.78125 -13.894531 3.832031 -14.101562 3.9375 -14.21875 C 4.019531 -14.351562 4.210938 -14.421875 4.515625 -14.421875 Z M 4.515625 -14.421875 "/></g></g></g><g fill="#1c2120" fill-opacity="1"><g transform="translate(62.572566, 37.148729)"><g><path d="M 0.34375 0 L 0.34375 -2.46875 L 1.765625 -2.46875 L 1.765625 -2.203125 L 0.65625 -2.203125 L 0.65625 -1.375 L 1.59375 -1.375 L 1.59375 -1.109375 L 0.65625 -1.109375 L 0.65625 0 Z M 0.34375 0 "/></g></g></g><g fill="#1c2120" fill-opacity="1"><g transform="translate(64.428622, 37.148729)"><g><path d="M 0.3125 0 L 0.3125 -1.828125 L 0.5625 -1.828125 L 0.59375 -1.5 L 0.609375 -1.5 C 0.671875 -1.613281 0.742188 -1.703125 0.828125 -1.765625 C 0.921875 -1.835938 1.019531 -1.875 1.125 -1.875 C 1.195312 -1.875 1.257812 -1.863281 1.3125 -1.84375 L 1.25 -1.5625 C 1.226562 -1.570312 1.203125 -1.578125 1.171875 -1.578125 C 1.148438 -1.585938 1.117188 -1.59375 1.078125 -1.59375 C 1.003906 -1.59375 0.925781 -1.5625 0.84375 -1.5 C 0.757812 -1.4375 0.6875 -1.328125 0.625 -1.171875 L 0.625 0 Z M 0.3125 0 "/></g></g></g><g fill="#1c2120" fill-opacity="1"><g transform="translate(65.732369, 37.148729)"><g><path d="M 1.015625 0.046875 C 0.898438 0.046875 0.789062 0.0234375 0.6875 -0.015625 C 0.59375 -0.0546875 0.503906 -0.117188 0.421875 -0.203125 C 0.347656 -0.285156 0.285156 -0.382812 0.234375 -0.5 C 0.191406 -0.625 0.171875 -0.757812 0.171875 -0.90625 C 0.171875 -1.0625 0.191406 -1.195312 0.234375 -1.3125 C 0.285156 -1.4375 0.347656 -1.539062 0.421875 -1.625 C 0.503906 -1.707031 0.59375 -1.769531 0.6875 -1.8125 C 0.789062 -1.851562 0.898438 -1.875 1.015625 -1.875 C 1.128906 -1.875 1.238281 -1.851562 1.34375 -1.8125 C 1.445312 -1.769531 1.535156 -1.707031 1.609375 -1.625 C 1.691406 -1.539062 1.753906 -1.4375 1.796875 -1.3125 C 1.847656 -1.195312 1.875 -1.0625 1.875 -0.90625 C 1.875 -0.757812 1.847656 -0.625 1.796875 -0.5 C 1.753906 -0.382812 1.691406 -0.285156 1.609375 -0.203125 C 1.535156 -0.117188 1.445312 -0.0546875 1.34375 -0.015625 C 1.238281 0.0234375 1.128906 0.046875 1.015625 0.046875 Z M 1.015625 -0.203125 C 1.097656 -0.203125 1.171875 -0.21875 1.234375 -0.25 C 1.296875 -0.289062 1.347656 -0.34375 1.390625 -0.40625 C 1.441406 -0.46875 1.476562 -0.539062 1.5 -0.625 C 1.53125 -0.707031 1.546875 -0.800781 1.546875 -0.90625 C 1.546875 -1.007812 1.53125 -1.101562 1.5 -1.1875 C 1.476562 -1.28125 1.441406 -1.359375 1.390625 -1.421875 C 1.347656 -1.484375 1.296875 -1.53125 1.234375 -1.5625 C 1.171875 -1.601562 1.097656 -1.625 1.015625 -1.625 C 0.941406 -1.625 0.867188 -1.601562 0.796875 -1.5625 C 0.734375 -1.53125 0.675781 -1.484375 0.625 -1.421875 C 0.582031 -1.359375 0.550781 -1.28125 0.53125 -1.1875 C 0.507812 -1.101562 0.5 -1.007812 0.5 -0.90625 C 0.5 -0.800781 0.507812 -0.707031 0.53125 -0.625 C 0.550781 -0.539062 0.582031 -0.46875 0.625 -0.40625 C 0.675781 -0.34375 0.734375 -0.289062 0.796875 -0.25 C 0.867188 -0.21875 0.941406 -0.203125 1.015625 -0.203125 Z M 1.015625 -0.203125 "/></g></g></g><g fill="#1c2120" fill-opacity="1"><g transform="translate(67.768773, 37.148729)"><g><path d="M 0.3125 0 L 0.3125 -1.828125 L 0.5625 -1.828125 L 0.59375 -1.5625 L 0.609375 -1.5625 C 0.691406 -1.65625 0.78125 -1.726562 0.875 -1.78125 C 0.976562 -1.84375 1.09375 -1.875 1.21875 -1.875 C 1.40625 -1.875 1.546875 -1.8125 1.640625 -1.6875 C 1.734375 -1.570312 1.78125 -1.394531 1.78125 -1.15625 L 1.78125 0 L 1.46875 0 L 1.46875 -1.125 C 1.46875 -1.289062 1.4375 -1.410156 1.375 -1.484375 C 1.320312 -1.566406 1.238281 -1.609375 1.125 -1.609375 C 1.019531 -1.609375 0.929688 -1.582031 0.859375 -1.53125 C 0.785156 -1.488281 0.707031 -1.421875 0.625 -1.328125 L 0.625 0 Z M 0.3125 0 "/></g></g></g><g fill="#1c2120" fill-opacity="1"><g transform="translate(69.823964, 37.148729)"><g><path d="M 0.890625 0.046875 C 0.785156 0.046875 0.695312 0.03125 0.625 0 C 0.5625 -0.03125 0.507812 -0.0703125 0.46875 -0.125 C 0.4375 -0.175781 0.410156 -0.238281 0.390625 -0.3125 C 0.367188 -0.382812 0.359375 -0.46875 0.359375 -0.5625 L 0.359375 -1.578125 L 0.09375 -1.578125 L 0.09375 -1.8125 L 0.375 -1.828125 L 0.421875 -2.34375 L 0.671875 -2.34375 L 0.671875 -1.828125 L 1.171875 -1.828125 L 1.171875 -1.578125 L 0.671875 -1.578125 L 0.671875 -0.5625 C 0.671875 -0.445312 0.691406 -0.359375 0.734375 -0.296875 C 0.773438 -0.234375 0.847656 -0.203125 0.953125 -0.203125 C 0.984375 -0.203125 1.019531 -0.207031 1.0625 -0.21875 C 1.101562 -0.226562 1.132812 -0.238281 1.15625 -0.25 L 1.21875 -0.015625 C 1.175781 -0.00390625 1.125 0.00390625 1.0625 0.015625 C 1 0.0351562 0.941406 0.046875 0.890625 0.046875 Z M 0.890625 0.046875 "/></g></g></g><g fill="#1c2120" fill-opacity="1"><g transform="translate(71.0939, 37.148729)"><g/></g></g><g fill="#1c2120" fill-opacity="1"><g transform="translate(71.845339, 37.148729)"><g><path d="M 0.15625 -0.828125 L 0.15625 -1.0625 L 1.015625 -1.0625 L 1.015625 -0.828125 Z M 0.15625 -0.828125 "/></g></g></g><g fill="#1c2120" fill-opacity="1"><g transform="translate(73.013828, 37.148729)"><g/></g></g><g fill="#1c2120" fill-opacity="1"><g transform="translate(73.765267, 37.148729)"><g><path d="M 0.34375 0 L 0.34375 -2.46875 L 1.765625 -2.46875 L 1.765625 -2.203125 L 0.65625 -2.203125 L 0.65625 -1.4375 L 1.59375 -1.4375 L 1.59375 -1.15625 L 0.65625 -1.15625 L 0.65625 -0.265625 L 1.796875 -0.265625 L 1.796875 0 Z M 0.34375 0 "/></g></g></g><g fill="#1c2120" fill-opacity="1"><g transform="translate(75.745313, 37.148729)"><g><path d="M 0.3125 0 L 0.3125 -1.828125 L 0.5625 -1.828125 L 0.59375 -1.5625 L 0.609375 -1.5625 C 0.691406 -1.65625 0.78125 -1.726562 0.875 -1.78125 C 0.976562 -1.84375 1.09375 -1.875 1.21875 -1.875 C 1.40625 -1.875 1.546875 -1.8125 1.640625 -1.6875 C 1.734375 -1.570312 1.78125 -1.394531 1.78125 -1.15625 L 1.78125 0 L 1.46875 0 L 1.46875 -1.125 C 1.46875 -1.289062 1.4375 -1.410156 1.375 -1.484375 C 1.320312 -1.566406 1.238281 -1.609375 1.125 -1.609375 C 1.019531 -1.609375 0.929688 -1.582031 0.859375 -1.53125 C 0.785156 -1.488281 0.707031 -1.421875 0.625 -1.328125 L 0.625 0 Z M 0.3125 0 "/></g></g></g><g fill="#1c2120" fill-opacity="1"><g transform="translate(77.800504, 37.148729)"><g><path d="M 0.9375 0.046875 C 0.707031 0.046875 0.519531 -0.0351562 0.375 -0.203125 C 0.238281 -0.367188 0.171875 -0.601562 0.171875 -0.90625 C 0.171875 -1.0625 0.191406 -1.195312 0.234375 -1.3125 C 0.285156 -1.425781 0.347656 -1.523438 0.421875 -1.609375 C 0.492188 -1.691406 0.578125 -1.753906 0.671875 -1.796875 C 0.765625 -1.847656 0.863281 -1.875 0.96875 -1.875 C 1.070312 -1.875 1.160156 -1.851562 1.234375 -1.8125 C 1.316406 -1.78125 1.398438 -1.734375 1.484375 -1.671875 L 1.46875 -1.984375 L 1.46875 -2.6875 L 1.78125 -2.6875 L 1.78125 0 L 1.53125 0 L 1.5 -0.21875 L 1.484375 -0.21875 C 1.410156 -0.144531 1.328125 -0.0820312 1.234375 -0.03125 C 1.140625 0.0195312 1.039062 0.046875 0.9375 0.046875 Z M 1 -0.21875 C 1.082031 -0.21875 1.160156 -0.238281 1.234375 -0.28125 C 1.316406 -0.320312 1.394531 -0.382812 1.46875 -0.46875 L 1.46875 -1.421875 C 1.394531 -1.492188 1.320312 -1.539062 1.25 -1.5625 C 1.175781 -1.59375 1.101562 -1.609375 1.03125 -1.609375 C 0.957031 -1.609375 0.882812 -1.59375 0.8125 -1.5625 C 0.75 -1.53125 0.691406 -1.484375 0.640625 -1.421875 C 0.597656 -1.359375 0.5625 -1.285156 0.53125 -1.203125 C 0.507812 -1.117188 0.5 -1.023438 0.5 -0.921875 C 0.5 -0.691406 0.539062 -0.515625 0.625 -0.390625 C 0.71875 -0.273438 0.84375 -0.21875 1 -0.21875 Z M 1 -0.21875 "/></g></g></g><g fill="#1c2120" fill-opacity="1"><g transform="translate(79.885752, 37.148729)"><g/></g></g><g fill="#1c2120" fill-opacity="1"><g transform="translate(80.637191, 37.148729)"><g><path d="M 0.34375 0 L 0.34375 -2.46875 L 1.765625 -2.46875 L 1.765625 -2.203125 L 0.65625 -2.203125 L 0.65625 -1.4375 L 1.59375 -1.4375 L 1.59375 -1.15625 L 0.65625 -1.15625 L 0.65625 -0.265625 L 1.796875 -0.265625 L 1.796875 0 Z M 0.34375 0 "/></g></g></g><g fill="#1c2120" fill-opacity="1"><g transform="translate(82.617236, 37.148729)"><g><path d="M 0.3125 0 L 0.3125 -1.828125 L 0.5625 -1.828125 L 0.59375 -1.5625 L 0.609375 -1.5625 C 0.691406 -1.65625 0.78125 -1.726562 0.875 -1.78125 C 0.976562 -1.84375 1.09375 -1.875 1.21875 -1.875 C 1.40625 -1.875 1.546875 -1.8125 1.640625 -1.6875 C 1.734375 -1.570312 1.78125 -1.394531 1.78125 -1.15625 L 1.78125 0 L 1.46875 0 L 1.46875 -1.125 C 1.46875 -1.289062 1.4375 -1.410156 1.375 -1.484375 C 1.320312 -1.566406 1.238281 -1.609375 1.125 -1.609375 C 1.019531 -1.609375 0.929688 -1.582031 0.859375 -1.53125 C 0.785156 -1.488281 0.707031 -1.421875 0.625 -1.328125 L 0.625 0 Z M 0.3125 0 "/></g></g></g><g fill="#1c2120" fill-opacity="1"><g transform="translate(84.672427, 37.148729)"><g><path d="M 0.921875 0.84375 C 0.804688 0.84375 0.703125 0.832031 0.609375 0.8125 C 0.523438 0.789062 0.445312 0.757812 0.375 0.71875 C 0.3125 0.675781 0.257812 0.625 0.21875 0.5625 C 0.1875 0.5 0.171875 0.425781 0.171875 0.34375 C 0.171875 0.269531 0.191406 0.195312 0.234375 0.125 C 0.285156 0.0507812 0.351562 -0.0078125 0.4375 -0.0625 L 0.4375 -0.078125 C 0.394531 -0.109375 0.359375 -0.144531 0.328125 -0.1875 C 0.296875 -0.238281 0.28125 -0.300781 0.28125 -0.375 C 0.28125 -0.457031 0.300781 -0.523438 0.34375 -0.578125 C 0.382812 -0.640625 0.425781 -0.6875 0.46875 -0.71875 L 0.46875 -0.734375 C 0.414062 -0.785156 0.363281 -0.851562 0.3125 -0.9375 C 0.257812 -1.019531 0.234375 -1.113281 0.234375 -1.21875 C 0.234375 -1.320312 0.25 -1.410156 0.28125 -1.484375 C 0.320312 -1.566406 0.375 -1.632812 0.4375 -1.6875 C 0.5 -1.75 0.570312 -1.796875 0.65625 -1.828125 C 0.738281 -1.859375 0.828125 -1.875 0.921875 -1.875 C 0.972656 -1.875 1.019531 -1.867188 1.0625 -1.859375 C 1.113281 -1.847656 1.15625 -1.835938 1.1875 -1.828125 L 1.828125 -1.828125 L 1.828125 -1.59375 L 1.453125 -1.59375 C 1.492188 -1.550781 1.523438 -1.492188 1.546875 -1.421875 C 1.578125 -1.359375 1.59375 -1.289062 1.59375 -1.21875 C 1.59375 -1.113281 1.570312 -1.019531 1.53125 -0.9375 C 1.5 -0.863281 1.453125 -0.800781 1.390625 -0.75 C 1.335938 -0.695312 1.269531 -0.65625 1.1875 -0.625 C 1.101562 -0.59375 1.015625 -0.578125 0.921875 -0.578125 C 0.878906 -0.578125 0.832031 -0.582031 0.78125 -0.59375 C 0.738281 -0.601562 0.695312 -0.617188 0.65625 -0.640625 C 0.625 -0.617188 0.59375 -0.585938 0.5625 -0.546875 C 0.539062 -0.515625 0.53125 -0.472656 0.53125 -0.421875 C 0.53125 -0.367188 0.550781 -0.320312 0.59375 -0.28125 C 0.644531 -0.238281 0.734375 -0.21875 0.859375 -0.21875 L 1.21875 -0.21875 C 1.425781 -0.21875 1.582031 -0.179688 1.6875 -0.109375 C 1.800781 -0.046875 1.859375 0.0546875 1.859375 0.203125 C 1.859375 0.296875 1.832031 0.378906 1.78125 0.453125 C 1.738281 0.523438 1.675781 0.585938 1.59375 0.640625 C 1.519531 0.703125 1.425781 0.75 1.3125 0.78125 C 1.195312 0.820312 1.066406 0.84375 0.921875 0.84375 Z M 0.921875 -0.78125 C 0.972656 -0.78125 1.019531 -0.789062 1.0625 -0.8125 C 1.113281 -0.832031 1.15625 -0.859375 1.1875 -0.890625 C 1.226562 -0.929688 1.257812 -0.976562 1.28125 -1.03125 C 1.300781 -1.09375 1.3125 -1.15625 1.3125 -1.21875 C 1.3125 -1.351562 1.273438 -1.457031 1.203125 -1.53125 C 1.128906 -1.613281 1.035156 -1.65625 0.921875 -1.65625 C 0.816406 -1.65625 0.722656 -1.613281 0.640625 -1.53125 C 0.566406 -1.457031 0.53125 -1.351562 0.53125 -1.21875 C 0.53125 -1.15625 0.539062 -1.09375 0.5625 -1.03125 C 0.582031 -0.976562 0.609375 -0.929688 0.640625 -0.890625 C 0.679688 -0.859375 0.722656 -0.832031 0.765625 -0.8125 C 0.816406 -0.789062 0.867188 -0.78125 0.921875 -0.78125 Z M 0.96875 0.625 C 1.0625 0.625 1.140625 0.613281 1.203125 0.59375 C 1.273438 0.570312 1.335938 0.546875 1.390625 0.515625 C 1.441406 0.484375 1.476562 0.441406 1.5 0.390625 C 1.53125 0.347656 1.546875 0.300781 1.546875 0.25 C 1.546875 0.164062 1.515625 0.109375 1.453125 0.078125 C 1.390625 0.046875 1.300781 0.03125 1.1875 0.03125 L 0.859375 0.03125 C 0.828125 0.03125 0.789062 0.0234375 0.75 0.015625 C 0.707031 0.015625 0.664062 0.0078125 0.625 0 C 0.5625 0.0507812 0.515625 0.101562 0.484375 0.15625 C 0.453125 0.207031 0.4375 0.257812 0.4375 0.3125 C 0.4375 0.40625 0.484375 0.476562 0.578125 0.53125 C 0.671875 0.59375 0.800781 0.625 0.96875 0.625 Z M 0.96875 0.625 "/></g></g></g><g fill="#1c2120" fill-opacity="1"><g transform="translate(86.566058, 37.148729)"><g><path d="M 0.3125 0 L 0.3125 -1.828125 L 0.625 -1.828125 L 0.625 0 Z M 0.46875 -2.203125 C 0.40625 -2.203125 0.351562 -2.21875 0.3125 -2.25 C 0.269531 -2.289062 0.25 -2.34375 0.25 -2.40625 C 0.25 -2.46875 0.269531 -2.515625 0.3125 -2.546875 C 0.351562 -2.585938 0.40625 -2.609375 0.46875 -2.609375 C 0.53125 -2.609375 0.582031 -2.585938 0.625 -2.546875 C 0.664062 -2.515625 0.6875 -2.46875 0.6875 -2.40625 C 0.6875 -2.34375 0.664062 -2.289062 0.625 -2.25 C 0.582031 -2.21875 0.53125 -2.203125 0.46875 -2.203125 Z M 0.46875 -2.203125 "/></g></g></g><g fill="#1c2120" fill-opacity="1"><g transform="translate(87.490331, 37.148729)"><g><path d="M 0.3125 0 L 0.3125 -1.828125 L 0.5625 -1.828125 L 0.59375 -1.5625 L 0.609375 -1.5625 C 0.691406 -1.65625 0.78125 -1.726562 0.875 -1.78125 C 0.976562 -1.84375 1.09375 -1.875 1.21875 -1.875 C 1.40625 -1.875 1.546875 -1.8125 1.640625 -1.6875 C 1.734375 -1.570312 1.78125 -1.394531 1.78125 -1.15625 L 1.78125 0 L 1.46875 0 L 1.46875 -1.125 C 1.46875 -1.289062 1.4375 -1.410156 1.375 -1.484375 C 1.320312 -1.566406 1.238281 -1.609375 1.125 -1.609375 C 1.019531 -1.609375 0.929688 -1.582031 0.859375 -1.53125 C 0.785156 -1.488281 0.707031 -1.421875 0.625 -1.328125 L 0.625 0 Z M 0.3125 0 "/></g></g></g><g fill="#1c2120" fill-opacity="1"><g transform="translate(89.545522, 37.148729)"><g><path d="M 1.046875 0.046875 C 0.921875 0.046875 0.804688 0.0234375 0.703125 -0.015625 C 0.597656 -0.0664062 0.503906 -0.128906 0.421875 -0.203125 C 0.347656 -0.285156 0.285156 -0.382812 0.234375 -0.5 C 0.191406 -0.625 0.171875 -0.757812 0.171875 -0.90625 C 0.171875 -1.0625 0.191406 -1.195312 0.234375 -1.3125 C 0.285156 -1.4375 0.347656 -1.539062 0.421875 -1.625 C 0.503906 -1.707031 0.59375 -1.769531 0.6875 -1.8125 C 0.789062 -1.851562 0.894531 -1.875 1 -1.875 C 1.113281 -1.875 1.210938 -1.851562 1.296875 -1.8125 C 1.390625 -1.769531 1.46875 -1.710938 1.53125 -1.640625 C 1.59375 -1.566406 1.640625 -1.476562 1.671875 -1.375 C 1.703125 -1.269531 1.71875 -1.148438 1.71875 -1.015625 C 1.71875 -0.984375 1.71875 -0.953125 1.71875 -0.921875 C 1.71875 -0.890625 1.71875 -0.863281 1.71875 -0.84375 L 0.484375 -0.84375 C 0.492188 -0.644531 0.550781 -0.488281 0.65625 -0.375 C 0.769531 -0.257812 0.914062 -0.203125 1.09375 -0.203125 C 1.175781 -0.203125 1.253906 -0.210938 1.328125 -0.234375 C 1.398438 -0.265625 1.472656 -0.300781 1.546875 -0.34375 L 1.65625 -0.140625 C 1.570312 -0.0859375 1.476562 -0.0390625 1.375 0 C 1.28125 0.03125 1.171875 0.046875 1.046875 0.046875 Z M 0.46875 -1.0625 L 1.453125 -1.0625 C 1.453125 -1.25 1.410156 -1.390625 1.328125 -1.484375 C 1.253906 -1.578125 1.144531 -1.625 1 -1.625 C 0.9375 -1.625 0.875 -1.613281 0.8125 -1.59375 C 0.757812 -1.570312 0.707031 -1.535156 0.65625 -1.484375 C 0.601562 -1.429688 0.5625 -1.367188 0.53125 -1.296875 C 0.5 -1.234375 0.476562 -1.15625 0.46875 -1.0625 Z M 0.46875 -1.0625 "/></g></g></g><g fill="#1c2120" fill-opacity="1"><g transform="translate(91.409096, 37.148729)"><g><path d="M 1.046875 0.046875 C 0.921875 0.046875 0.804688 0.0234375 0.703125 -0.015625 C 0.597656 -0.0664062 0.503906 -0.128906 0.421875 -0.203125 C 0.347656 -0.285156 0.285156 -0.382812 0.234375 -0.5 C 0.191406 -0.625 0.171875 -0.757812 0.171875 -0.90625 C 0.171875 -1.0625 0.191406 -1.195312 0.234375 -1.3125 C 0.285156 -1.4375 0.347656 -1.539062 0.421875 -1.625 C 0.503906 -1.707031 0.59375 -1.769531 0.6875 -1.8125 C 0.789062 -1.851562 0.894531 -1.875 1 -1.875 C 1.113281 -1.875 1.210938 -1.851562 1.296875 -1.8125 C 1.390625 -1.769531 1.46875 -1.710938 1.53125 -1.640625 C 1.59375 -1.566406 1.640625 -1.476562 1.671875 -1.375 C 1.703125 -1.269531 1.71875 -1.148438 1.71875 -1.015625 C 1.71875 -0.984375 1.71875 -0.953125 1.71875 -0.921875 C 1.71875 -0.890625 1.71875 -0.863281 1.71875 -0.84375 L 0.484375 -0.84375 C 0.492188 -0.644531 0.550781 -0.488281 0.65625 -0.375 C 0.769531 -0.257812 0.914062 -0.203125 1.09375 -0.203125 C 1.175781 -0.203125 1.253906 -0.210938 1.328125 -0.234375 C 1.398438 -0.265625 1.472656 -0.300781 1.546875 -0.34375 L 1.65625 -0.140625 C 1.570312 -0.0859375 1.476562 -0.0390625 1.375 0 C 1.28125 0.03125 1.171875 0.046875 1.046875 0.046875 Z M 0.46875 -1.0625 L 1.453125 -1.0625 C 1.453125 -1.25 1.410156 -1.390625 1.328125 -1.484375 C 1.253906 -1.578125 1.144531 -1.625 1 -1.625 C 0.9375 -1.625 0.875 -1.613281 0.8125 -1.59375 C 0.757812 -1.570312 0.707031 -1.535156 0.65625 -1.484375 C 0.601562 -1.429688 0.5625 -1.367188 0.53125 -1.296875 C 0.5 -1.234375 0.476562 -1.15625 0.46875 -1.0625 Z M 0.46875 -1.0625 "/></g></g></g><g fill="#1c2120" fill-opacity="1"><g transform="translate(93.27267, 37.148729)"><g><path d="M 0.3125 0 L 0.3125 -1.828125 L 0.5625 -1.828125 L 0.59375 -1.5 L 0.609375 -1.5 C 0.671875 -1.613281 0.742188 -1.703125 0.828125 -1.765625 C 0.921875 -1.835938 1.019531 -1.875 1.125 -1.875 C 1.195312 -1.875 1.257812 -1.863281 1.3125 -1.84375 L 1.25 -1.5625 C 1.226562 -1.570312 1.203125 -1.578125 1.171875 -1.578125 C 1.148438 -1.585938 1.117188 -1.59375 1.078125 -1.59375 C 1.003906 -1.59375 0.925781 -1.5625 0.84375 -1.5 C 0.757812 -1.4375 0.6875 -1.328125 0.625 -1.171875 L 0.625 0 Z M 0.3125 0 "/></g></g></g></svg>