<svg xmlns="http://www.w3.org/2000/svg" xmlns:xlink="http://www.w3.org/1999/xlink" width="522" zoomAndPan="magnify" viewBox="0 0 391.5 212.249992" height="283" preserveAspectRatio="xMidYMid meet" version="1.0"><defs><g/><clipPath id="83f2e7e0db"><path d="M 109.46875 15.703125 L 294.460938 15.703125 L 294.460938 200.695312 L 109.46875 200.695312 Z M 109.46875 15.703125 " clip-rule="nonzero"/></clipPath><clipPath id="f7eea7449c"><path d="M 201.964844 15.703125 C 150.882812 15.703125 109.46875 57.113281 109.46875 108.199219 C 109.46875 159.28125 150.882812 200.695312 201.964844 200.695312 C 253.050781 200.695312 294.460938 159.28125 294.460938 108.199219 C 294.460938 57.113281 253.050781 15.703125 201.964844 15.703125 Z M 201.964844 15.703125 " clip-rule="nonzero"/></clipPath><clipPath id="c252306aaf"><path d="M 208.671875 0 L 274.4375 0 L 274.4375 65.769531 L 208.671875 65.769531 Z M 208.671875 0 " clip-rule="nonzero"/></clipPath><clipPath id="f6013914b3"><path d="M 118.769531 157.90625 L 164.355469 157.90625 L 164.355469 203.496094 L 118.769531 203.496094 Z M 118.769531 157.90625 " clip-rule="nonzero"/></clipPath><clipPath id="a2c0600aa3"><path d="M 222.230469 13.558594 L 261.09375 13.558594 L 261.09375 52.421875 L 222.230469 52.421875 Z M 222.230469 13.558594 " clip-rule="nonzero"/></clipPath><clipPath id="a3f2107c07"><path d="M 128.082031 167.222656 L 154.988281 167.222656 L 154.988281 194 L 128.082031 194 Z M 128.082031 167.222656 " clip-rule="nonzero"/></clipPath></defs><g clip-path="url(#83f2e7e0db)"><g clip-path="url(#f7eea7449c)"><path fill="#222222" d="M 109.46875 15.703125 L 294.460938 15.703125 L 294.460938 200.695312 L 109.46875 200.695312 Z M 109.46875 15.703125 " fill-opacity="1" fill-rule="nonzero"/></g></g><g clip-path="url(#c252306aaf)"><path fill="#222222" d="M 274.75 33.039062 C 249.96875 37.601562 246.269531 41.296875 241.710938 66.078125 C 237.148438 41.296875 233.449219 37.601562 208.671875 33.039062 C 233.449219 28.476562 237.148438 24.777344 241.710938 0 C 246.269531 24.777344 249.96875 28.476562 274.75 33.039062 Z M 274.75 33.039062 " fill-opacity="1" fill-rule="nonzero"/></g><g clip-path="url(#f6013914b3)"><path fill="#222222" d="M 164.167969 180.605469 C 147.140625 183.738281 144.601562 186.28125 141.46875 203.304688 C 138.332031 186.28125 135.792969 183.738281 118.769531 180.605469 C 135.792969 177.472656 138.332031 174.929688 141.46875 157.90625 C 144.601562 174.929688 147.140625 177.472656 164.167969 180.605469 Z M 164.167969 180.605469 " fill-opacity="1" fill-rule="nonzero"/></g><path stroke-linecap="butt" transform="matrix(0.87162, 0, 0, 0.87162, 39.054799, 53.636757)" fill="none" stroke-linejoin="miter" d="M 67.766136 97.412 C 63.490691 97.412 59.999525 96.551533 57.29712 94.821636 C 54.612642 93.109665 52.654183 90.895754 51.421744 88.175424 C 50.189304 85.437166 49.575325 82.631685 49.575325 79.75898 C 49.575325 76.886275 50.153451 74.139054 51.318667 71.5218 C 52.465956 68.891102 54.088295 66.748897 56.194647 65.108632 C 58.296517 63.45044 60.752433 62.621344 63.557915 62.621344 C 64.602127 62.621344 65.121993 63.038133 65.121993 63.876192 C 65.121993 66.202142 66.12139 68.084414 68.124664 69.523007 C 70.127939 70.957119 72.565929 71.678656 75.438635 71.678656 C 78.723647 71.678656 82.219294 70.257989 85.930059 67.416655 C 89.645305 64.579803 92.733127 60.00409 95.193525 53.689517 C 96.103289 51.314269 97.026499 48.849389 97.967635 46.299359 C 98.922215 43.735884 99.854388 41.329266 100.764153 39.088466 C 101.463282 37.259973 102.386492 35.960309 103.533781 35.189474 C 104.698997 34.418639 106.047958 34.033222 107.589628 34.033222 C 109.830428 34.033222 111.251095 34.548606 111.847148 35.574892 C 112.447682 36.583252 112.564204 37.959103 112.205676 39.706927 C 111.865074 41.400971 111.197316 43.484915 110.206882 45.967721 C 109.229894 48.446045 108.176718 51.040891 107.051836 53.743296 C 105.935918 56.4457 104.981338 59.000212 104.17465 61.411312 C 103.372443 63.826894 102.969099 65.843614 102.969099 67.470435 C 102.969099 68.788025 103.372443 69.921869 104.17465 70.880932 C 104.981338 71.822068 106.263075 72.292636 108.024344 72.292636 C 110.332367 72.292636 112.429756 71.508356 114.312027 69.930833 C 116.212226 68.357791 117.879381 66.278329 119.313492 63.696928 C 120.752086 61.0976 121.854559 58.224895 122.625394 55.074331 C 123.396229 51.910322 123.781647 48.791128 123.781647 45.71227 C 123.781647 42.700635 123.23041 39.935488 122.1369 37.421311 C 121.061316 34.889207 119.170081 32.836635 116.467677 31.263593 C 113.783199 29.672626 110.018655 28.879382 105.178528 28.879382 C 101.875589 28.879382 98.720543 29.426138 95.708909 30.519648 C 92.697274 31.599713 90.241357 33.266868 88.345641 35.525594 C 86.463369 37.766394 85.522233 40.706323 85.522233 44.349863 C 85.522233 45.891534 85.907651 47.164308 86.678486 48.172668 C 87.444839 49.181028 88.394938 49.687448 89.524301 49.687448 C 90.295136 49.772599 90.483364 50.516544 90.088983 51.919285 C 89.712529 53.304099 88.874469 54.895067 87.574806 56.692188 C 86.275142 58.471383 84.607987 60.026498 82.568859 61.362015 C 80.552139 62.697531 78.275487 63.36529 75.743383 63.36529 C 72.870678 63.36529 70.450614 62.643752 68.483192 61.20964 C 66.533697 59.771047 65.063732 57.879812 64.068817 55.535935 C 63.09631 53.192059 62.607816 50.686845 62.607816 48.020293 C 62.607816 43.538694 63.607212 39.303583 65.610487 35.319441 C 67.613762 31.317373 70.432688 27.772427 74.076228 24.693569 C 77.719769 21.601265 82.04003 19.17672 87.037014 17.433378 C 92.047442 15.690036 97.573254 14.816124 103.609968 14.816124 C 110.332367 14.816124 115.988146 15.707962 120.572822 17.487157 C 125.157498 19.26187 128.832409 21.717787 131.606519 24.850425 C 134.376148 27.960655 136.37046 31.536971 137.584973 35.574892 C 138.817413 39.594887 139.431392 43.843443 139.431392 48.329524 C 139.431392 53.936005 138.593333 59.461817 136.917215 64.902478 C 135.241096 70.325213 132.946518 75.228083 130.042441 79.606606 C 127.133883 83.985128 123.781647 87.489739 119.981251 90.124919 C 116.203262 92.742173 112.214639 94.0508 108.024344 94.0508 C 103.681674 94.0508 100.239805 92.742173 97.707702 90.124919 C 95.193525 87.489739 93.790784 84.003055 93.49948 79.655903 C 90.559551 85.114491 86.880158 89.443716 82.470264 92.639097 C 78.055889 95.821032 73.153019 97.412 67.766136 97.412 Z M 191.776472 64.212312 C 192.184298 63.575925 192.843093 63.347363 193.752858 63.517664 C 194.676067 63.687965 195.46931 64.073382 196.137069 64.673917 C 196.804827 65.269969 196.92583 65.991507 196.495597 66.829566 C 195.52309 68.931436 194.245834 71.105012 192.672792 73.345811 C 191.099751 75.586611 189.132329 77.45992 186.770526 78.965737 C 184.42665 80.471554 181.536018 81.224463 178.098631 81.224463 L 176.839302 81.224463 C 174.257901 84.796298 171.161115 87.655558 167.553428 89.793281 C 163.941259 91.931004 160.172234 93.002106 156.23739 93.002106 C 151.549637 93.002106 147.668572 91.424583 144.589713 88.2785 C 141.506372 85.114491 139.969184 80.803193 139.969184 75.344605 C 139.969184 71.414242 140.68624 67.398729 142.124833 63.31151 C 143.563427 59.206365 145.571183 55.428377 148.152584 51.973064 C 150.756393 48.499824 153.799399 45.71227 157.290565 43.605918 C 160.795176 41.504048 164.653833 40.450872 168.862055 40.450872 C 171.73476 40.450872 174.325125 41.03348 176.63763 42.194214 C 178.945653 43.341504 180.783109 45.246183 182.154479 47.917217 C 183.521366 50.570323 184.207051 54.110787 184.207051 58.538607 C 184.207051 62.253853 183.682704 65.852577 182.638491 69.343743 L 183.360029 69.343743 C 184.897217 69.343743 186.367182 68.940399 187.769923 68.138193 C 189.172663 67.331505 190.50818 66.022878 191.776472 64.212312 Z M 162.242733 71.23946 C 163.986075 71.23946 165.527745 70.719594 166.85878 69.675381 C 168.194297 68.613242 169.247472 67.331505 170.013826 65.825688 C 170.784661 64.31987 171.170079 62.831979 171.170079 61.362015 C 171.170079 59.824826 170.717437 58.516199 169.812154 57.436134 C 168.902389 56.342623 167.432425 55.795868 165.397779 55.795868 C 163.72166 55.795868 162.233769 56.288844 160.934106 57.283759 C 159.634442 58.256266 158.612637 59.497669 157.877655 61.003487 C 157.142673 62.509304 156.775181 64.028566 156.775181 65.570236 C 156.775181 67.111907 157.196452 68.442942 158.034511 69.572305 C 158.87257 70.683741 160.275311 71.23946 162.242733 71.23946 Z M 198.283755 93.002106 C 194.568509 93.002106 191.978144 91.966857 190.50818 89.896358 C 189.033734 87.825859 188.298751 85.248939 188.298751 82.170081 C 188.298751 79.503529 188.634871 76.594971 189.30263 73.448888 C 189.965906 70.298324 190.821892 67.219465 191.866104 64.212312 C 195.442421 53.980821 198.4675 45.403039 200.950306 38.474487 C 203.446557 31.528008 205.853176 26.284536 208.1612 22.744073 C 210.469223 19.203609 213.028217 17.433378 215.833698 17.433378 C 218.002792 17.433378 219.374161 18.25351 219.938843 19.898257 C 220.503524 21.538523 219.970214 24.012366 218.347875 27.310823 C 215.488615 33.127939 213.028217 38.51034 210.957718 43.453544 C 208.887219 48.396748 207.255917 53.075537 206.054848 57.489913 C 205.490167 59.506633 205.091304 61.447165 204.849298 63.31151 C 204.611773 65.157929 204.840335 66.663747 205.543946 67.828963 C 206.243075 68.989697 207.645816 69.572305 209.752168 69.572305 C 211.562734 69.572305 213.153701 69.101737 214.525071 68.160601 C 215.891959 67.20602 217.133362 65.88843 218.244798 64.212312 C 218.80948 63.374253 219.544462 63.073986 220.449745 63.31151 C 221.372955 63.553517 222.125863 64.024085 222.708471 64.723214 C 223.309006 65.426825 223.403119 66.125955 222.990812 66.829566 C 222.291683 67.954447 221.44466 69.590231 220.449745 71.727954 C 219.477238 73.84775 218.303059 76.124403 216.936171 78.55343 C 215.569284 80.96453 213.969353 83.277036 212.136378 85.481982 C 210.325812 87.686929 208.282203 89.493014 206.00555 90.895754 C 203.728898 92.298495 201.15646 93.002106 198.283755 93.002106 Z M 234.338222 93.002106 C 230.13 93.002106 226.688132 92.06097 224.02158 90.178699 C 221.368473 88.2785 219.392088 85.773286 218.092424 82.658575 C 216.79276 79.530418 216.142928 76.142329 216.142928 72.498789 C 216.142928 68.788025 216.761389 65.059334 217.989347 61.312717 C 219.221787 57.5661 220.992019 54.11975 223.304524 50.969186 C 225.612548 47.805177 228.409066 45.26411 231.694078 43.350467 C 234.992535 41.414416 238.716744 40.450872 242.85326 40.450872 C 247.899541 40.450872 251.578934 41.750536 253.886958 44.349863 C 256.199463 46.931265 257.351234 49.942899 257.351234 53.380286 C 257.351234 56.391921 256.768626 58.829911 255.607892 60.694256 C 254.460603 62.540675 253.057862 63.885155 251.39967 64.723214 C 249.759405 65.561273 248.168437 65.982544 246.626767 65.982544 C 244.811719 65.982544 243.444832 65.673313 242.521622 65.059334 C 241.616339 64.422947 241.159216 63.755189 241.159216 63.056059 C 241.159216 62.424154 241.347443 61.899807 241.723897 61.491981 C 242.118278 61.061748 242.521622 60.532919 242.933929 59.901013 C 243.359681 59.264626 243.574798 58.319009 243.574798 57.050716 C 243.574798 56.078209 243.256604 55.222224 242.624699 54.487241 C 242.006238 53.747777 240.885838 53.380286 239.263499 53.380286 C 236.88377 53.380286 235.046314 54.415536 233.746651 56.486035 C 232.464913 58.538607 231.819563 60.90041 231.819563 63.566962 C 231.819563 66.372443 232.559027 68.658058 234.028991 70.419327 C 235.498956 72.162669 237.408117 73.354775 239.751994 73.98668 C 242.09587 74.600659 244.632455 74.672365 247.370713 74.192834 C 250.10897 73.695376 252.802411 72.628755 255.455518 70.984009 C 258.122069 69.343743 260.439056 67.085017 262.406478 64.212312 C 262.953234 63.374253 263.683734 63.073986 264.589017 63.31151 C 265.512227 63.553517 266.265136 64.024085 266.847743 64.723214 C 267.443796 65.426825 267.53791 66.125955 267.130084 66.829566 C 262.509555 75.380457 257.427422 81.883258 251.888165 86.329005 C 246.344426 90.774751 240.495939 93.002106 234.338222 93.002106 Z M 279.732342 93.002106 C 275.52412 93.002106 272.068807 92.06097 269.366402 90.178699 C 266.681924 88.2785 264.687613 85.773286 263.387949 82.658575 C 262.088285 79.530418 261.456379 76.08855 261.487751 72.346415 C 261.523603 68.599798 262.173435 64.853181 263.437246 61.106564 C 264.705539 57.359946 266.525068 53.931523 268.904798 50.816811 C 271.280045 47.684173 274.175158 45.178959 277.576692 43.296688 C 280.982708 41.400971 284.823438 40.450872 289.098884 40.450872 C 292.383897 40.450872 295.059411 41.064851 297.12991 42.297291 C 299.200409 43.511804 300.719671 45.138625 301.69666 47.173271 C 302.673649 49.207917 303.157661 51.381493 303.157661 53.689517 C 303.157661 56.22162 302.458532 58.744761 301.055791 61.258938 C 299.670977 63.773115 297.712518 65.86154 295.180415 67.519732 C 292.666237 69.164479 289.690455 69.984612 286.248587 69.984612 C 284.778622 69.984612 283.340029 69.881535 281.937288 69.675381 C 280.534548 69.451302 279.243847 68.989697 278.065187 68.290567 C 277.706659 68.084414 277.312278 68.075451 276.886526 68.263678 C 276.474219 68.433978 276.268065 68.873175 276.268065 69.572305 C 276.268065 71.387352 277.339168 72.772167 279.47689 73.731229 C 281.614613 74.672365 284.187051 75.142933 287.198686 75.142933 C 290.775002 75.142933 294.46784 74.233168 298.286163 72.422602 C 302.100004 70.589628 305.196789 67.855852 307.572037 64.212312 C 308.136718 63.374253 308.871701 63.073986 309.781465 63.31151 C 310.704675 63.553517 311.457583 64.024085 312.03571 64.723214 C 312.636244 65.426825 312.730358 66.125955 312.318051 66.829566 C 307.684077 75.380457 302.610906 81.883258 297.103021 86.329005 C 291.613062 90.774751 285.822835 93.002106 279.732342 93.002106 Z M 283.528256 62.10596 C 285.549458 62.10596 287.131462 61.456128 288.278752 60.156464 C 289.439486 58.856801 290.022094 57.53921 290.022094 56.203694 C 290.022094 55.025033 289.61875 54.016673 288.816544 53.178614 C 288.009856 52.322629 286.804305 51.892395 285.199893 51.892395 C 283.160765 51.892395 281.547389 52.528782 280.346321 53.792593 C 279.16766 55.056404 278.576089 56.391921 278.576089 57.794662 C 278.576089 58.906098 278.979433 59.909976 279.786121 60.797333 C 280.588327 61.671245 281.838693 62.10596 283.528256 62.10596 Z M 283.528256 62.10596 " stroke="#222222" stroke-width="7.88295" stroke-opacity="1" stroke-miterlimit="4"/><g fill="#f6f4f0" fill-opacity="1"><g transform="translate(85.931592, 134.697383)"><g><path d="M 12.1875 3.84375 C 8.457031 3.84375 5.414062 3.09375 3.0625 1.59375 C 0.71875 0.101562 -0.988281 -1.828125 -2.0625 -4.203125 C -3.132812 -6.585938 -3.671875 -9.035156 -3.671875 -11.546875 C -3.671875 -14.046875 -3.164062 -16.441406 -2.15625 -18.734375 C -1.144531 -21.023438 0.273438 -22.882812 2.109375 -24.3125 C 3.941406 -25.75 6.078125 -26.46875 8.515625 -26.46875 C 9.429688 -26.46875 9.890625 -26.101562 9.890625 -25.375 C 9.890625 -23.363281 10.757812 -21.726562 12.5 -20.46875 C 14.238281 -19.21875 16.363281 -18.59375 18.875 -18.59375 C 21.738281 -18.59375 24.789062 -19.828125 28.03125 -22.296875 C 31.269531 -24.773438 33.957031 -28.765625 36.09375 -34.265625 C 36.882812 -36.335938 37.691406 -38.488281 38.515625 -40.71875 C 39.347656 -42.945312 40.160156 -45.039062 40.953125 -47 C 41.554688 -48.582031 42.363281 -49.707031 43.375 -50.375 C 44.382812 -51.050781 45.5625 -51.390625 46.90625 -51.390625 C 48.851562 -51.390625 50.085938 -50.945312 50.609375 -50.0625 C 51.128906 -49.175781 51.238281 -47.972656 50.9375 -46.453125 C 50.632812 -44.984375 50.050781 -43.164062 49.1875 -41 C 48.332031 -38.832031 47.414062 -36.570312 46.4375 -34.21875 C 45.46875 -31.863281 44.628906 -29.632812 43.921875 -27.53125 C 43.222656 -25.425781 42.875 -23.671875 42.875 -22.265625 C 42.875 -21.097656 43.222656 -20.101562 43.921875 -19.28125 C 44.628906 -18.457031 45.742188 -18.046875 47.265625 -18.046875 C 49.285156 -18.046875 51.117188 -18.734375 52.765625 -20.109375 C 54.410156 -21.484375 55.859375 -23.300781 57.109375 -25.5625 C 58.367188 -27.820312 59.332031 -30.320312 60 -33.0625 C 60.675781 -35.8125 61.015625 -38.53125 61.015625 -41.21875 C 61.015625 -43.84375 60.539062 -46.253906 59.59375 -48.453125 C 58.644531 -50.660156 56.992188 -52.445312 54.640625 -53.8125 C 52.296875 -55.1875 49.015625 -55.875 44.796875 -55.875 C 41.921875 -55.875 39.171875 -55.398438 36.546875 -54.453125 C 33.921875 -53.515625 31.785156 -52.066406 30.140625 -50.109375 C 28.492188 -48.148438 27.671875 -45.585938 27.671875 -42.421875 C 27.671875 -41.078125 28.003906 -39.960938 28.671875 -39.078125 C 29.347656 -38.191406 30.171875 -37.75 31.140625 -37.75 C 31.816406 -37.6875 31.984375 -37.039062 31.640625 -35.8125 C 31.304688 -34.59375 30.570312 -33.203125 29.4375 -31.640625 C 28.3125 -30.085938 26.863281 -28.726562 25.09375 -27.5625 C 23.320312 -26.40625 21.335938 -25.828125 19.140625 -25.828125 C 16.640625 -25.828125 14.535156 -26.453125 12.828125 -27.703125 C 11.117188 -28.960938 9.832031 -30.613281 8.96875 -32.65625 C 8.113281 -34.707031 7.6875 -36.890625 7.6875 -39.203125 C 7.6875 -43.117188 8.554688 -46.816406 10.296875 -50.296875 C 12.046875 -53.773438 14.503906 -56.859375 17.671875 -59.546875 C 20.847656 -62.234375 24.617188 -64.335938 28.984375 -65.859375 C 33.359375 -67.390625 38.171875 -68.15625 43.421875 -68.15625 C 49.285156 -68.15625 54.21875 -67.375 58.21875 -65.8125 C 62.21875 -64.257812 65.421875 -62.125 67.828125 -59.40625 C 70.242188 -56.6875 71.984375 -53.570312 73.046875 -50.0625 C 74.117188 -46.550781 74.65625 -42.84375 74.65625 -38.9375 C 74.65625 -34.050781 73.921875 -29.238281 72.453125 -24.5 C 70.992188 -19.769531 68.992188 -15.492188 66.453125 -11.671875 C 63.921875 -7.859375 61.003906 -4.804688 57.703125 -2.515625 C 54.410156 -0.222656 50.929688 0.921875 47.265625 0.921875 C 43.484375 0.921875 40.492188 -0.222656 38.296875 -2.515625 C 36.097656 -4.804688 34.875 -7.847656 34.625 -11.640625 C 32.0625 -6.867188 28.851562 -3.09375 25 -0.3125 C 21.15625 2.457031 16.882812 3.84375 12.1875 3.84375 Z M 12.1875 3.84375 "/></g></g></g><g fill="#f6f4f0" fill-opacity="1"><g transform="translate(160.495409, 134.697383)"><g><path d="M 45.71875 -25.09375 C 46.082031 -25.644531 46.660156 -25.84375 47.453125 -25.6875 C 48.242188 -25.539062 48.929688 -25.207031 49.515625 -24.6875 C 50.097656 -24.164062 50.203125 -23.539062 49.828125 -22.8125 C 48.972656 -20.976562 47.859375 -19.082031 46.484375 -17.125 C 45.117188 -15.175781 43.410156 -13.546875 41.359375 -12.234375 C 39.316406 -10.921875 36.796875 -10.265625 33.796875 -10.265625 L 32.703125 -10.265625 C 30.441406 -7.148438 27.738281 -4.660156 24.59375 -2.796875 C 21.445312 -0.929688 18.164062 0 14.75 0 C 10.65625 0 7.265625 -1.375 4.578125 -4.125 C 1.890625 -6.875 0.546875 -10.628906 0.546875 -15.390625 C 0.546875 -18.804688 1.171875 -22.300781 2.421875 -25.875 C 3.679688 -29.445312 5.4375 -32.742188 7.6875 -35.765625 C 9.945312 -38.796875 12.601562 -41.226562 15.65625 -43.0625 C 18.71875 -44.894531 22.082031 -45.8125 25.75 -45.8125 C 28.25 -45.8125 30.503906 -45.304688 32.515625 -44.296875 C 34.535156 -43.285156 36.140625 -41.617188 37.328125 -39.296875 C 38.523438 -36.972656 39.125 -33.890625 39.125 -30.046875 C 39.125 -26.804688 38.664062 -23.660156 37.75 -20.609375 L 38.390625 -20.609375 C 39.734375 -20.609375 41.015625 -20.957031 42.234375 -21.65625 C 43.453125 -22.363281 44.613281 -23.507812 45.71875 -25.09375 Z M 19.96875 -18.96875 C 21.5 -18.96875 22.84375 -19.425781 24 -20.34375 C 25.164062 -21.257812 26.082031 -22.375 26.75 -23.6875 C 27.414062 -25 27.75 -26.296875 27.75 -27.578125 C 27.75 -28.921875 27.351562 -30.066406 26.5625 -31.015625 C 25.769531 -31.960938 24.488281 -32.4375 22.71875 -32.4375 C 21.25 -32.4375 19.945312 -32.003906 18.8125 -31.140625 C 17.6875 -30.285156 16.800781 -29.203125 16.15625 -27.890625 C 15.519531 -26.578125 15.203125 -25.25 15.203125 -23.90625 C 15.203125 -22.5625 15.566406 -21.398438 16.296875 -20.421875 C 17.035156 -19.453125 18.257812 -18.96875 19.96875 -18.96875 Z M 19.96875 -18.96875 "/></g></g></g><g fill="#f6f4f0" fill-opacity="1"><g transform="translate(204.097843, 134.697383)"><g><path d="M 7.78125 0 C 4.550781 0 2.289062 -0.898438 1 -2.703125 C -0.28125 -4.503906 -0.921875 -6.75 -0.921875 -9.4375 C -0.921875 -11.757812 -0.628906 -14.289062 -0.046875 -17.03125 C 0.535156 -19.78125 1.285156 -22.46875 2.203125 -25.09375 C 5.316406 -34.007812 7.957031 -41.488281 10.125 -47.53125 C 12.289062 -53.582031 14.378906 -58.148438 16.390625 -61.234375 C 18.410156 -64.328125 20.640625 -65.875 23.078125 -65.875 C 24.972656 -65.875 26.164062 -65.15625 26.65625 -63.71875 C 27.144531 -62.28125 26.6875 -60.125 25.28125 -57.25 C 22.78125 -52.1875 20.628906 -47.5 18.828125 -43.1875 C 17.023438 -38.882812 15.601562 -34.8125 14.5625 -30.96875 C 14.070312 -29.195312 13.71875 -27.5 13.5 -25.875 C 13.289062 -24.257812 13.492188 -22.945312 14.109375 -21.9375 C 14.722656 -20.925781 15.941406 -20.421875 17.765625 -20.421875 C 19.359375 -20.421875 20.75 -20.832031 21.9375 -21.65625 C 23.132812 -22.488281 24.21875 -23.632812 25.1875 -25.09375 C 25.675781 -25.832031 26.316406 -26.09375 27.109375 -25.875 C 27.910156 -25.664062 28.566406 -25.253906 29.078125 -24.640625 C 29.597656 -24.035156 29.675781 -23.425781 29.3125 -22.8125 C 28.707031 -21.832031 27.972656 -20.410156 27.109375 -18.546875 C 26.253906 -16.679688 25.234375 -14.695312 24.046875 -12.59375 C 22.859375 -10.488281 21.46875 -8.472656 19.875 -6.546875 C 18.289062 -4.628906 16.503906 -3.054688 14.515625 -1.828125 C 12.535156 -0.609375 10.289062 0 7.78125 0 Z M 7.78125 0 "/></g></g></g><g fill="#f6f4f0" fill-opacity="1"><g transform="translate(227.18148, 134.697383)"><g><path d="M 16.125 0 C 12.457031 0 9.460938 -0.820312 7.140625 -2.46875 C 4.828125 -4.125 3.101562 -6.304688 1.96875 -9.015625 C 0.84375 -11.734375 0.28125 -14.679688 0.28125 -17.859375 C 0.28125 -21.097656 0.8125 -24.347656 1.875 -27.609375 C 2.945312 -30.878906 4.488281 -33.890625 6.5 -36.640625 C 8.519531 -39.390625 10.960938 -41.601562 13.828125 -43.28125 C 16.703125 -44.96875 19.941406 -45.8125 23.546875 -45.8125 C 27.941406 -45.8125 31.144531 -44.679688 33.15625 -42.421875 C 35.175781 -40.160156 36.1875 -37.53125 36.1875 -34.53125 C 36.1875 -31.90625 35.679688 -29.785156 34.671875 -28.171875 C 33.660156 -26.554688 32.4375 -25.378906 31 -24.640625 C 29.570312 -23.910156 28.1875 -23.546875 26.84375 -23.546875 C 25.25 -23.546875 24.054688 -23.816406 23.265625 -24.359375 C 22.472656 -24.910156 22.078125 -25.492188 22.078125 -26.109375 C 22.078125 -26.660156 22.242188 -27.117188 22.578125 -27.484375 C 22.910156 -27.847656 23.257812 -28.304688 23.625 -28.859375 C 24 -29.410156 24.1875 -30.234375 24.1875 -31.328125 C 24.1875 -32.179688 23.910156 -32.925781 23.359375 -33.5625 C 22.804688 -34.207031 21.828125 -34.53125 20.421875 -34.53125 C 18.347656 -34.53125 16.742188 -33.628906 15.609375 -31.828125 C 14.484375 -30.023438 13.921875 -27.96875 13.921875 -25.65625 C 13.921875 -23.207031 14.5625 -21.21875 15.84375 -19.6875 C 17.125 -18.164062 18.785156 -17.128906 20.828125 -16.578125 C 22.878906 -16.023438 25.097656 -15.960938 27.484375 -16.390625 C 29.867188 -16.828125 32.21875 -17.757812 34.53125 -19.1875 C 36.851562 -20.625 38.867188 -22.59375 40.578125 -25.09375 C 41.066406 -25.832031 41.707031 -26.09375 42.5 -25.875 C 43.300781 -25.664062 43.957031 -25.253906 44.46875 -24.640625 C 44.988281 -24.035156 45.066406 -23.425781 44.703125 -22.8125 C 40.671875 -15.363281 36.242188 -9.695312 31.421875 -5.8125 C 26.597656 -1.9375 21.5 0 16.125 0 Z M 16.125 0 "/></g></g></g><g fill="#f6f4f0" fill-opacity="1"><g transform="translate(265.654212, 134.697383)"><g><path d="M 17.21875 0 C 13.550781 0 10.539062 -0.820312 8.1875 -2.46875 C 5.84375 -4.125 4.101562 -6.304688 2.96875 -9.015625 C 1.84375 -11.734375 1.296875 -14.726562 1.328125 -18 C 1.359375 -21.269531 1.921875 -24.535156 3.015625 -27.796875 C 4.117188 -31.066406 5.707031 -34.0625 7.78125 -36.78125 C 9.863281 -39.5 12.382812 -41.679688 15.34375 -43.328125 C 18.300781 -44.984375 21.644531 -45.8125 25.375 -45.8125 C 28.25 -45.8125 30.585938 -45.273438 32.390625 -44.203125 C 34.191406 -43.128906 35.519531 -41.707031 36.375 -39.9375 C 37.226562 -38.164062 37.65625 -36.273438 37.65625 -34.265625 C 37.65625 -32.066406 37.039062 -29.867188 35.8125 -27.671875 C 34.59375 -25.472656 32.882812 -23.65625 30.6875 -22.21875 C 28.488281 -20.78125 25.894531 -20.0625 22.90625 -20.0625 C 21.625 -20.0625 20.367188 -20.148438 19.140625 -20.328125 C 17.921875 -20.515625 16.789062 -20.914062 15.75 -21.53125 C 15.445312 -21.707031 15.113281 -21.71875 14.75 -21.5625 C 14.382812 -21.414062 14.203125 -21.035156 14.203125 -20.421875 C 14.203125 -18.835938 15.128906 -17.632812 16.984375 -16.8125 C 18.847656 -15.988281 21.097656 -15.578125 23.734375 -15.578125 C 26.847656 -15.578125 30.066406 -16.367188 33.390625 -17.953125 C 36.722656 -19.546875 39.425781 -21.925781 41.5 -25.09375 C 41.988281 -25.832031 42.628906 -26.09375 43.421875 -25.875 C 44.210938 -25.664062 44.867188 -25.253906 45.390625 -24.640625 C 45.910156 -24.035156 45.988281 -23.425781 45.625 -22.8125 C 41.59375 -15.363281 37.175781 -9.695312 32.375 -5.8125 C 27.582031 -1.9375 22.53125 0 17.21875 0 Z M 20.515625 -26.9375 C 22.285156 -26.9375 23.675781 -27.5 24.6875 -28.625 C 25.695312 -29.757812 26.203125 -30.90625 26.203125 -32.0625 C 26.203125 -33.101562 25.847656 -33.988281 25.140625 -34.71875 C 24.441406 -35.445312 23.390625 -35.8125 21.984375 -35.8125 C 20.210938 -35.8125 18.804688 -35.257812 17.765625 -34.15625 C 16.734375 -33.0625 16.21875 -31.90625 16.21875 -30.6875 C 16.21875 -29.707031 16.566406 -28.835938 17.265625 -28.078125 C 17.972656 -27.316406 19.054688 -26.9375 20.515625 -26.9375 Z M 20.515625 -26.9375 "/></g></g></g><g fill="#f6f4f0" fill-opacity="1"><g transform="translate(162.225176, 155.383444)"><g><path d="M 1.8125 0 L 0.203125 0 L 1.84375 -7.703125 L 7.328125 -7.703125 L 7.046875 -6.34375 L 3.171875 -6.34375 L 2.796875 -4.609375 L 6.1875 -4.609375 L 5.890625 -3.234375 L 2.5 -3.234375 Z M 1.8125 0 "/></g></g></g><g fill="#f6f4f0" fill-opacity="1"><g transform="translate(170.123431, 155.383444)"><g><path d="M 1.796875 0 L 0.203125 0 L 1.84375 -7.703125 L 5.21875 -7.703125 C 6.125 -7.703125 6.773438 -7.554688 7.171875 -7.265625 C 7.566406 -6.984375 7.765625 -6.585938 7.765625 -6.078125 C 7.765625 -5.003906 7.253906 -4.21875 6.234375 -3.71875 C 6.617188 -3.53125 6.8125 -3.226562 6.8125 -2.8125 C 6.8125 -2.625 6.800781 -2.453125 6.78125 -2.296875 L 6.53125 -0.90625 C 6.507812 -0.789062 6.5 -0.6875 6.5 -0.59375 C 6.5 -0.375 6.570312 -0.242188 6.71875 -0.203125 L 6.671875 0 L 4.890625 0 C 4.867188 -0.09375 4.859375 -0.191406 4.859375 -0.296875 C 4.859375 -0.554688 4.914062 -0.984375 5.03125 -1.578125 C 5.113281 -2.003906 5.15625 -2.265625 5.15625 -2.359375 C 5.15625 -2.546875 5.082031 -2.703125 4.9375 -2.828125 C 4.800781 -2.953125 4.570312 -3.015625 4.25 -3.015625 L 2.421875 -3.015625 Z M 2.703125 -4.3125 L 4.4375 -4.3125 C 5.03125 -4.3125 5.453125 -4.429688 5.703125 -4.671875 C 5.960938 -4.921875 6.09375 -5.242188 6.09375 -5.640625 C 6.09375 -5.878906 6.007812 -6.0625 5.84375 -6.1875 C 5.6875 -6.3125 5.4375 -6.375 5.09375 -6.375 L 3.140625 -6.375 Z M 2.703125 -4.3125 "/></g></g></g><g fill="#f6f4f0" fill-opacity="1"><g transform="translate(179.143055, 155.383444)"><g><path d="M 8.234375 -4.84375 C 8.234375 -3.519531 7.796875 -2.347656 6.921875 -1.328125 C 6.054688 -0.304688 4.96875 0.203125 3.65625 0.203125 C 2.71875 0.203125 1.960938 -0.0703125 1.390625 -0.625 C 0.816406 -1.1875 0.53125 -1.9375 0.53125 -2.875 C 0.53125 -4.1875 0.960938 -5.351562 1.828125 -6.375 C 2.703125 -7.394531 3.800781 -7.90625 5.125 -7.90625 C 6.0625 -7.90625 6.8125 -7.628906 7.375 -7.078125 C 7.945312 -6.523438 8.234375 -5.78125 8.234375 -4.84375 Z M 4.875 -6.53125 C 4.113281 -6.53125 3.472656 -6.175781 2.953125 -5.46875 C 2.441406 -4.769531 2.1875 -3.988281 2.1875 -3.125 C 2.1875 -2.53125 2.335938 -2.050781 2.640625 -1.6875 C 2.953125 -1.332031 3.375 -1.15625 3.90625 -1.15625 C 4.664062 -1.15625 5.300781 -1.503906 5.8125 -2.203125 C 6.332031 -2.910156 6.59375 -3.703125 6.59375 -4.578125 C 6.59375 -5.160156 6.4375 -5.628906 6.125 -5.984375 C 5.820312 -6.347656 5.40625 -6.53125 4.875 -6.53125 Z M 4.875 -6.53125 "/></g></g></g><g fill="#f6f4f0" fill-opacity="1"><g transform="translate(188.833405, 155.383444)"><g><path d="M 6.625 -7.703125 L 8.125 -7.703125 L 6.484375 0 L 4.875 0 L 2.90625 -5.5 L 2.875 -5.5 L 1.71875 0 L 0.203125 0 L 1.84375 -7.703125 L 3.546875 -7.703125 L 5.46875 -2.34375 L 5.484375 -2.34375 Z M 6.625 -7.703125 "/></g></g></g><g fill="#f6f4f0" fill-opacity="1"><g transform="translate(198.078345, 155.383444)"><g><path d="M 3.515625 0 L 1.90625 0 L 3.25 -6.34375 L 0.921875 -6.34375 L 1.21875 -7.703125 L 7.484375 -7.703125 L 7.203125 -6.34375 L 4.859375 -6.34375 Z M 3.515625 0 "/></g></g></g><g fill="#f6f4f0" fill-opacity="1"><g transform="translate(206.055194, 155.383444)"><g><path d="M 3.203125 -2.3125 L 0.203125 -2.3125 L 0.5 -3.703125 L 3.5 -3.703125 Z M 3.203125 -2.3125 "/></g></g></g><g fill="#f6f4f0" fill-opacity="1"><g transform="translate(211.02426, 155.383444)"><g><path d="M 7.21875 -6.34375 L 3.140625 -6.34375 L 2.796875 -4.71875 L 6.546875 -4.71875 L 6.265625 -3.359375 L 2.5 -3.359375 L 2.078125 -1.359375 L 6.34375 -1.359375 L 6.0625 0 L 0.203125 0 L 1.84375 -7.703125 L 7.515625 -7.703125 Z M 7.21875 -6.34375 "/></g></g></g><g fill="#f6f4f0" fill-opacity="1"><g transform="translate(219.525117, 155.383444)"><g><path d="M 6.625 -7.703125 L 8.125 -7.703125 L 6.484375 0 L 4.875 0 L 2.90625 -5.5 L 2.875 -5.5 L 1.71875 0 L 0.203125 0 L 1.84375 -7.703125 L 3.546875 -7.703125 L 5.46875 -2.34375 L 5.484375 -2.34375 Z M 6.625 -7.703125 "/></g></g></g><g fill="#f6f4f0" fill-opacity="1"><g transform="translate(228.770059, 155.383444)"><g><path d="M 1.84375 -7.703125 L 5.046875 -7.703125 C 5.921875 -7.703125 6.585938 -7.492188 7.046875 -7.078125 C 7.503906 -6.671875 7.734375 -6.015625 7.734375 -5.109375 C 7.734375 -3.859375 7.367188 -2.691406 6.640625 -1.609375 C 5.910156 -0.535156 4.878906 0 3.546875 0 L 0.203125 0 Z M 2.078125 -1.328125 L 3.640625 -1.328125 C 4.472656 -1.328125 5.082031 -1.71875 5.46875 -2.5 C 5.863281 -3.289062 6.0625 -4.113281 6.0625 -4.96875 C 6.0625 -5.46875 5.929688 -5.828125 5.671875 -6.046875 C 5.421875 -6.265625 5.09375 -6.375 4.6875 -6.375 L 3.140625 -6.375 Z M 2.078125 -1.328125 "/></g></g></g><g clip-path="url(#a2c0600aa3)"><path fill="#f6f4f0" d="M 261.195312 33.042969 C 246.582031 35.730469 244.402344 37.914062 241.710938 52.523438 C 239.023438 37.914062 236.84375 35.730469 222.230469 33.042969 C 236.84375 30.351562 239.023438 28.171875 241.710938 13.558594 C 244.402344 28.171875 246.582031 30.351562 261.195312 33.042969 Z M 261.195312 33.042969 " fill-opacity="1" fill-rule="nonzero"/></g><g clip-path="url(#a3f2107c07)"><path fill="#f6f4f0" d="M 154.847656 180.601562 C 144.808594 182.449219 143.3125 183.949219 141.464844 193.984375 C 139.617188 183.949219 138.121094 182.449219 128.082031 180.601562 C 138.121094 178.753906 139.617188 177.257812 141.464844 167.222656 C 143.3125 177.257812 144.808594 178.753906 154.847656 180.601562 Z M 154.847656 180.601562 " fill-opacity="1" fill-rule="nonzero"/></g></svg>